<svg width="33" height="33" viewBox="0 0 33 33" fill="none" xmlns="http://www.w3.org/2000/svg">
<path d="M11.4542 7.03148H8.45421C7.90192 7.03148 7.45421 7.47919 7.45421 8.03148V24.0315C7.45421 24.5838 7.90192 25.0315 8.45421 25.0315H11.4542C12.0065 25.0315 12.4542 24.5838 12.4542 24.0315V8.03148C12.4542 7.47919 12.0065 7.03148 11.4542 7.03148Z" stroke="white" stroke-width="2" stroke-linecap="round" stroke-linejoin="round"/>
<path d="M24.4542 7.03148H21.4542C20.9019 7.03148 20.4542 7.47919 20.4542 8.03148V24.0315C20.4542 24.5838 20.9019 25.0315 21.4542 25.0315H24.4542C25.0065 25.0315 25.4542 24.5838 25.4542 24.0315V8.03148C25.4542 7.47919 25.0065 7.03148 24.4542 7.03148Z" stroke="white" stroke-width="2" stroke-linecap="round" stroke-linejoin="round"/>
<path d="M25.4542 10.0315H28.4542C28.7194 10.0315 28.9738 10.1368 29.1613 10.3244C29.3489 10.5119 29.4542 10.7663 29.4542 11.0315V21.0315C29.4542 21.2967 29.3489 21.5511 29.1613 21.7386C28.9738 21.9261 28.7194 22.0315 28.4542 22.0315H25.4542" stroke="white" stroke-width="2" stroke-linecap="round" stroke-linejoin="round"/>
<path d="M7.45421 22.0315H4.45421C4.18899 22.0315 3.93464 21.9261 3.7471 21.7386C3.55957 21.5511 3.45421 21.2967 3.45421 21.0315V11.0315C3.45421 10.7663 3.55957 10.5119 3.7471 10.3244C3.93464 10.1368 4.18899 10.0315 4.45421 10.0315H7.45421" stroke="white" stroke-width="2" stroke-linecap="round" stroke-linejoin="round"/>
<path d="M12.4542 16.0315H20.4542" stroke="white" stroke-width="2" stroke-linecap="round" stroke-linejoin="round"/>
<path d="M29.4542 16.0315H31.4542" stroke="white" stroke-width="2" stroke-linecap="round" stroke-linejoin="round"/>
<path d="M1.45421 16.0315H3.45421" stroke="white" stroke-width="2" stroke-linecap="round" stroke-linejoin="round"/>
</svg>
